<svg width="43" height="53" viewBox="0 0 43 53" fill="none" xmlns="http://www.w3.org/2000/svg">
<path d="M14 26.5011L19 31.5011L29 21.5011M41.5 29.0011C41.5 41.5011 32.75 47.7511 22.35 51.3761C21.8054 51.5607 21.2138 51.5518 20.675 51.3511C10.25 47.7511 1.5 41.5011 1.5 29.0011V11.5011C1.5 10.8381 1.76339 10.2022 2.23223 9.73336C2.70107 9.26452 3.33696 9.00112 4 9.00112C9 9.00112 15.25 6.00112 19.6 2.20112C20.1296 1.74862 20.8034 1.5 21.5 1.5C22.1966 1.5 22.8704 1.74862 23.4 2.20112C27.775 6.02612 34 9.00112 39 9.00112C39.663 9.00112 40.2989 9.26452 40.7678 9.73336C41.2366 10.2022 41.5 10.8381 41.5 11.5011V29.0011Z" stroke="#838383" stroke-width="3" stroke-linecap="round" stroke-linejoin="round"/>
</svg>
