<svg width="152" height="23" viewBox="0 0 152 23" fill="none" xmlns="http://www.w3.org/2000/svg">
<path d="M16 5.34058e-05L10.016 15.6801H5.85604L3.91006e-05 5.34058e-05H2.88004L7.68004 13.5041H8.32004L13.12 5.34058e-05H16ZM33.2663 13.4401C33.2663 14.0587 33.0423 14.5921 32.5943 15.0401C32.1676 15.4667 31.645 15.6801 31.0263 15.6801H19.8263V4.48005L22.0663 2.24005H19.8263V5.34058e-05H28.7863C29.405 5.34058e-05 29.9276 0.224053 30.3543 0.672053C30.8023 1.09872 31.0263 1.62139 31.0263 2.24005V6.72005H31.0903C31.709 6.72005 32.221 6.94405 32.6263 7.39205C33.053 7.81872 33.2663 8.34139 33.2663 8.96005V13.4401ZM28.4663 6.72005V2.24005H22.3863V8.64005L24.3063 6.72005H28.4663ZM30.7063 13.4401V8.96005H22.3863V13.4401H30.7063ZM49.5888 15.6801H38.3888V5.34058e-05H40.9488V13.4401H47.0288V11.2001H49.5888V15.6801ZM62.875 15.6801H60.635V14.0481L58.715 15.6801H53.915C53.2964 15.6801 52.763 15.4667 52.315 15.0401C51.8884 14.5921 51.675 14.0587 51.675 13.4401V11.2001C51.675 10.5814 51.8884 10.0587 52.315 9.63205C52.763 9.18405 53.2964 8.96005 53.915 8.96005H60.315L58.395 10.8481H53.915V13.7601H60.635V6.40005H51.675L53.595 4.48005H60.635C61.2537 4.48005 61.7764 4.70405 62.203 5.15205C62.651 5.57872 62.875 6.10139 62.875 6.72005V15.6801ZM77.7425 4.48005L73.3905 15.6801H70.1265L65.9025 4.48005H68.4625L71.5025 13.8241H72.1425L75.1825 4.48005H77.7425ZM91.5 15.6801H89.26V14.0481L87.34 15.6801H82.54C81.9214 15.6801 81.388 15.4667 80.94 15.0401C80.5134 14.5921 80.3 14.0587 80.3 13.4401V11.2001C80.3 10.5814 80.5134 10.0587 80.94 9.63205C81.388 9.18405 81.9214 8.96005 82.54 8.96005H88.94L87.02 10.8481H82.54V13.7601H89.26V6.40005H80.3L82.22 4.48005H89.26C89.8787 4.48005 90.4014 4.70405 90.828 5.15205C91.276 5.57872 91.5 6.10139 91.5 6.72005V15.6801ZM108.448 4.48005L106.528 6.40005H98.5275V13.7601H105.248V7.36005H107.488V20.1601C107.488 20.7787 107.264 21.3014 106.816 21.7281C106.389 22.1761 105.866 22.4001 105.248 22.4001H95.9675L97.8875 20.4801H105.248V14.0481L103.328 15.6801H98.5275C97.9089 15.6801 97.3755 15.4667 96.9275 15.0401C96.5009 14.5921 96.2875 14.0587 96.2875 13.4401V6.72005C96.2875 6.10139 96.5009 5.57872 96.9275 5.15205C97.3755 4.70405 97.9089 4.48005 98.5275 4.48005H108.448ZM123.324 15.6801H114.364C113.745 15.6801 113.212 15.4667 112.764 15.0401C112.337 14.5921 112.124 14.0587 112.124 13.4401V6.72005C112.124 6.10139 112.337 5.57872 112.764 5.15205C113.212 4.70405 113.745 4.48005 114.364 4.48005H121.084C121.702 4.48005 122.225 4.70405 122.652 5.15205C123.1 5.57872 123.324 6.10139 123.324 6.72005V8.96005L121.084 11.2001H114.684L116.604 9.28005H121.084V6.40005H114.364V13.7601H123.324V15.6801ZM138.043 15.6801H135.803V6.40005H129.083V15.6801H126.843V4.48005H129.083V6.08005L130.683 4.48005H135.803C136.421 4.48005 136.944 4.70405 137.371 5.15205C137.819 5.57872 138.043 6.10139 138.043 6.72005V15.6801ZM151.65 4.48005L149.698 6.40005H144.29V8.96005H148.77C149.389 8.96005 149.911 9.18405 150.338 9.63205C150.786 10.0587 151.01 10.5814 151.01 11.2001V13.4401C151.01 14.0587 150.786 14.5921 150.338 15.0401C149.911 15.4667 149.389 15.6801 148.77 15.6801H142.05V13.7601H148.77V10.8801H144.29C143.671 10.8801 143.138 10.6667 142.69 10.2401C142.263 9.79205 142.05 9.25872 142.05 8.64005V6.72005C142.05 6.10139 142.263 5.57872 142.69 5.15205C143.138 4.70405 143.671 4.48005 144.29 4.48005H151.65Z" fill="black"/>
</svg>
